# xmcd CD database file
#
# Track frame offsets:
#	150
#	36875
#	75484
#	120939
#	171997
#	206840
#
# Disc length: 3407 seconds
#
# Revision: 2
# Processed by: cddbd v1.4b41PL1 Copyright (c) Steve Scherf et al.
# Submitted via: Feurio! 1.57ß - http://www.feurio.com
#
DISCID=460d4d06,520d4d06
DTITLE=Various Artist - Sisters
DYEAR=1900
DGENRE=
TTITLE0=The Sisters of Mercy - Temple of love 1992
TTITLE1=The Sisters of Mercy - More (extended version)
TTITLE2=The Sisters of Mercy - This Corrision
TTITLE3=George Michael - Killer Papa Was A Rolling Sone
TTITLE4=The Sisters of Mercy - Temple Of Love (Extended Version)
TTITLE5=The Sisters of Mercy - More (Power mix)
EXTD=
EXTT0=
EXTT1=
EXTT2=
EXTT3=
EXTT4=
EXTT5=
PLAYORDER=
